<svg width="164" height="124" viewBox="0 0 164 124" fill="none" xmlns="http://www.w3.org/2000/svg">
<path d="M136.268 44.8715C136.55 43.8571 138.007 43.9111 138.213 44.9436L141.554 61.693C142.137 64.6145 144.295 66.9701 147.154 67.8063L160.216 71.6256C161.175 71.9061 161.175 73.2648 160.216 73.5452L147.154 77.3646C144.295 78.2008 142.137 80.5564 141.554 83.4779L138.213 100.227C138.007 101.26 136.55 101.314 136.268 100.299L131.49 83.1043C130.735 80.3886 128.607 78.2704 125.888 77.5285L111.307 73.5502C110.325 73.2821 110.325 71.8887 111.307 71.6207L125.888 67.6424C128.607 66.9005 130.735 64.7823 131.49 62.0666L136.268 44.8715Z" fill="#73A30E"/>
<path d="M154.07 85.807C154.315 84.9062 155.609 84.9533 155.788 85.8696L155.886 86.3724C156.456 89.284 158.593 91.6393 161.436 92.4874V92.4874C162.196 92.714 162.196 93.79 161.436 94.0167V94.0167C158.593 94.8647 156.456 97.22 155.886 100.132L155.788 100.634C155.609 101.551 154.315 101.598 154.07 100.697L153.913 100.122C153.115 97.1913 150.833 94.897 147.907 94.0826V94.0826C147.065 93.8484 147.065 92.6556 147.907 92.4215V92.4215C150.833 91.607 153.115 89.3127 153.913 86.382L154.07 85.807Z" fill="#73A30E"/>
<path d="M35.624 0C43.3711 0 50.6042 3.87912 54.8896 10.333C59.175 16.7869 66.4072 20.6669 74.1543 20.667H123.502C127.141 20.667 130.632 22.1183 133.205 24.7021C135.779 27.286 137.225 30.7903 137.225 34.4443V39.417C135.397 39.0433 133.332 39.9093 132.61 42.0166L132.554 42.1924L126.462 62.6904L107.755 68.7822C104.073 69.9813 104.073 75.1896 107.755 76.3887L126.462 82.4795L132.554 102.979C133.218 105.213 135.347 106.136 137.225 105.752V110.223C137.224 113.877 135.778 117.381 133.205 119.965C130.632 122.549 127.141 124 123.502 124H13.7217C10.0824 124 6.59192 122.549 4.01855 119.965C1.4452 117.381 0.00011403 113.877 0 110.223V13.7773C0.000114538 10.1234 1.4452 6.61889 4.01855 4.03516C6.59192 1.45142 10.0824 0.00011504 13.7217 0H35.624Z" fill="#5C73FF"/>
</svg>
